<svg xmlns="http://www.w3.org/2000/svg" width="860" height="930" viewBox="0 0 860 930">
<rect width="100%" height="100%" fill="#ffffff"/>
<text x="430.0" y="67.0" font-size="28" font-family="sans-serif" text-anchor="middle" fill="#1e1e1e" opacity="1.0">头条后端项目 - 软件架构图</text>
<rect x="300" y="100" width="260" height="60" fill="#a5d8ff" stroke="#1971c2" stroke-width="2" opacity="1.0" rx="0"/>
<text x="430.0" y="136.5" font-size="16" font-family="sans-serif" text-anchor="middle" fill="#1e1e1e" opacity="1.0">客户端 (Mobile / Web)</text>
<path d="M 430.0 160.0 L 430.0 210.0" fill="none" stroke="#1971c2" stroke-width="2" opacity="1.0"/>
<polygon points="430,210 426.10581657691347,200.78939005997114 433.89418342308653,200.78939005997114" fill="#1971c2" opacity="1.0"/>
<text x="475.0" y="182.5" font-size="14" font-family="sans-serif" text-anchor="middle" fill="#868e96" opacity="1.0">HTTP</text>
<rect x="300" y="210" width="260" height="60" fill="#b2f2bb" stroke="#2f9e44" stroke-width="2" opacity="1.0" rx="0"/>
<text x="430.0" y="244.5" font-size="16" font-family="sans-serif" text-anchor="middle" fill="#1e1e1e" opacity="1.0">FastAPI 入口 (main.py)</text>
<text x="565" y="246.25" font-size="13" font-family="sans-serif" text-anchor="start" fill="#868e96" opacity="1.0">CORS 中间件</text>
<path d="M 430.0 270.0 L 430.0 315.0" fill="none" stroke="#2f9e44" stroke-width="2" opacity="1.0"/>
<polygon points="430,315 426.10581657691347,305.78939005997114 433.89418342308653,305.78939005997114" fill="#2f9e44" opacity="1.0"/>
<rect x="40" y="330" width="780" height="110" fill="#e7f5ff" stroke="#1971c2" stroke-width="1" opacity="0.5" stroke-dasharray="8,5" rx="0"/>
<text x="60" y="329.5" font-size="14" font-family="sans-serif" text-anchor="start" fill="#1971c2" opacity="1.0">路由层 (Routers)</text>
<rect x="60" y="345" width="170" height="60" fill="#a5d8ff" stroke="#1971c2" stroke-width="2" opacity="1.0" rx="0"/>
<text x="145.0" y="378.25" font-size="15" font-family="sans-serif" text-anchor="middle" fill="#1e1e1e" opacity="1.0">/api/news</text>
<rect x="255" y="345" width="170" height="60" fill="#a5d8ff" stroke="#1971c2" stroke-width="2" opacity="1.0" rx="0"/>
<text x="340.0" y="378.25" font-size="15" font-family="sans-serif" text-anchor="middle" fill="#1e1e1e" opacity="1.0">/api/user</text>
<rect x="450" y="345" width="170" height="60" fill="#a5d8ff" stroke="#1971c2" stroke-width="2" opacity="1.0" rx="0"/>
<text x="535.0" y="378.25" font-size="15" font-family="sans-serif" text-anchor="middle" fill="#1e1e1e" opacity="1.0">/api/favorite</text>
<rect x="645" y="345" width="160" height="60" fill="#a5d8ff" stroke="#1971c2" stroke-width="2" opacity="1.0" rx="0"/>
<text x="725.0" y="378.25" font-size="15" font-family="sans-serif" text-anchor="middle" fill="#1e1e1e" opacity="1.0">/api/history</text>
<path d="M 430.0 440.0 L 430.0 475.0" fill="none" stroke="#862e9c" stroke-width="2" opacity="1.0"/>
<polygon points="430,475 426.10581657691347,465.78939005997114 433.89418342308653,465.78939005997114" fill="#862e9c" opacity="1.0"/>
<text x="485.0" y="456.25" font-size="13" font-family="sans-serif" text-anchor="middle" fill="#868e96" opacity="1.0">请求校验</text>
<rect x="300" y="475" width="260" height="55" fill="#eebefa" stroke="#862e9c" stroke-width="2" opacity="1.0" rx="0"/>
<text x="430.0" y="508.25" font-size="15" font-family="sans-serif" text-anchor="middle" fill="#1e1e1e" opacity="1.0">Schema 层 (Pydantic 校验)</text>
<path d="M 430.0 530.0 L 430.0 565.0" fill="none" stroke="#e67700" stroke-width="2" opacity="1.0"/>
<polygon points="430,565 426.10581657691347,555.7893900599712 433.89418342308653,555.7893900599712" fill="#e67700" opacity="1.0"/>
<rect x="300" y="565" width="260" height="55" fill="#ffd8a8" stroke="#e67700" stroke-width="2" opacity="1.0" rx="0"/>
<text x="430.0" y="598.25" font-size="15" font-family="sans-serif" text-anchor="middle" fill="#1e1e1e" opacity="1.0">CRUD 层 (数据处理)</text>
<rect x="630" y="565" width="190" height="55" fill="#99e9f2" stroke="#0c8599" stroke-width="2" opacity="1.0" rx="0"/>
<text x="725.0" y="598.25" font-size="15" font-family="sans-serif" text-anchor="middle" fill="#1e1e1e" opacity="1.0">Redis 缓存层</text>
<path d="M 560.0 592.0 L 630.0 592.0" fill="none" stroke="#0c8599" stroke-width="2" opacity="1.0" stroke-dasharray="8,5"/>
<polygon points="630,592 620.7893900599712,595.8941834230865 620.7893900599712,588.1058165769135" fill="#0c8599" opacity="1.0"/>
<text x="605.0" y="588.0" font-size="12" font-family="sans-serif" text-anchor="middle" fill="#868e96" opacity="1.0">缓存</text>
<path d="M 430.0 620.0 L 430.0 655.0" fill="none" stroke="#c2255c" stroke-width="2" opacity="1.0"/>
<polygon points="430,655 426.10581657691347,645.7893900599712 433.89418342308653,645.7893900599712" fill="#c2255c" opacity="1.0"/>
<rect x="80" y="675" width="360" height="55" fill="#ffc9c9" stroke="#c2255c" stroke-width="2" opacity="1.0" rx="0"/>
<text x="260.0" y="708.25" font-size="15" font-family="sans-serif" text-anchor="middle" fill="#1e1e1e" opacity="1.0">ORM 模型层 (SQLAlchemy 2.0)</text>
<path d="M 260.0 730.0 L 260.0 765.0" fill="none" stroke="#c2255c" stroke-width="2" opacity="1.0"/>
<polygon points="260,765 256.10581657691347,755.7893900599712 263.89418342308653,755.7893900599712" fill="#c2255c" opacity="1.0"/>
<rect x="80" y="765" width="360" height="65" fill="#ffe3e3" stroke="#c2255c" stroke-width="2" opacity="1.0" stroke-dasharray="8,5" rx="0"/>
<text x="260.0" y="789.75" font-size="15" font-family="sans-serif" text-anchor="middle" fill="#1e1e1e" opacity="1.0">MySQL 数据库 (aiomysql)</text>
<text x="260.0" y="812.0" font-size="12" font-family="sans-serif" text-anchor="middle" fill="#868e96" opacity="1.0">user | news | favorite | history</text>
<rect x="560" y="680" width="260" height="150" fill="#f3f0ff" stroke="#6741d9" stroke-width="1" opacity="1.0" stroke-dasharray="8,5" rx="0"/>
<text x="580" y="699.5" font-size="14" font-family="sans-serif" text-anchor="start" fill="#6741d9" opacity="1.0">工具层 (Utils)</text>
<text x="580" y="724.25" font-size="13" font-family="sans-serif" text-anchor="start" fill="#1e1e1e" opacity="1.0">auth     - Token 认证</text>
<text x="580" y="746.25" font-size="13" font-family="sans-serif" text-anchor="start" fill="#1e1e1e" opacity="1.0">security  - 密码加密 (bcrypt)</text>
<text x="580" y="768.25" font-size="13" font-family="sans-serif" text-anchor="start" fill="#1e1e1e" opacity="1.0">response - 统一响应格式</text>
<text x="580" y="790.25" font-size="13" font-family="sans-serif" text-anchor="start" fill="#1e1e1e" opacity="1.0">exception - 全局异常处理</text>
<rect x="580" y="815" width="20" height="14" fill="#b2f2bb" stroke="#2f9e44" stroke-width="1" opacity="1.0" rx="0"/>
<text x="605" y="825.75" font-size="11" font-family="sans-serif" text-anchor="start" fill="#1e1e1e" opacity="1.0">框架/入口</text>
<rect x="675" y="815" width="20" height="14" fill="#a5d8ff" stroke="#1971c2" stroke-width="1" opacity="1.0" rx="0"/>
<text x="700" y="825.75" font-size="11" font-family="sans-serif" text-anchor="start" fill="#1e1e1e" opacity="1.0">路由模块</text>
<rect x="580" y="834" width="20" height="14" fill="#eebefa" stroke="#862e9c" stroke-width="1" opacity="1.0" rx="0"/>
<text x="605" y="844.75" font-size="11" font-family="sans-serif" text-anchor="start" fill="#1e1e1e" opacity="1.0">数据校验</text>
<rect x="675" y="834" width="20" height="14" fill="#ffd8a8" stroke="#e67700" stroke-width="1" opacity="1.0" rx="0"/>
<text x="700" y="844.75" font-size="11" font-family="sans-serif" text-anchor="start" fill="#1e1e1e" opacity="1.0">CRUD层</text>
<rect x="580" y="853" width="20" height="14" fill="#99e9f2" stroke="#0c8599" stroke-width="1" opacity="1.0" rx="0"/>
<text x="605" y="863.75" font-size="11" font-family="sans-serif" text-anchor="start" fill="#1e1e1e" opacity="1.0">缓存层</text>
<rect x="675" y="853" width="20" height="14" fill="#ffc9c9" stroke="#c2255c" stroke-width="1" opacity="1.0" rx="0"/>
<text x="700" y="863.75" font-size="11" font-family="sans-serif" text-anchor="start" fill="#1e1e1e" opacity="1.0">ORM/DB</text>
<rect x="580" y="872" width="20" height="14" fill="#f3f0ff" stroke="#6741d9" stroke-width="1" opacity="1.0" rx="0"/>
<text x="605" y="882.75" font-size="11" font-family="sans-serif" text-anchor="start" fill="#1e1e1e" opacity="1.0">工具层</text>
<path d="M 560.0 810.0 L 560.0 890.0" fill="none" stroke="#adb5bd" stroke-width="1" opacity="0.6" stroke-dasharray="8,5"/>
</svg>